<?xml version="1.0" standalone="no"?><!DOCTYPE svg PUBLIC "-//W3C//DTD SVG 1.1//EN" "http://www.w3.org/Graphics/SVG/1.1/DTD/svg11.dtd"><svg t="1676306405047" class="icon" viewBox="0 0 1024 1024" version="1.1" xmlns="http://www.w3.org/2000/svg" p-id="4618" xmlns:xlink="http://www.w3.org/1999/xlink" width="200" height="200"><path d="M881.487938 1024H98.049349a45.460653 45.460653 0 0 1-45.460653-45.460653V77.872887a45.460653 45.460653 0 0 1 45.460653-45.460654h557.650679a45.460653 45.460653 0 0 1 0 90.921307H143.510002v809.745154h692.517283V351.667247a45.460653 45.460653 0 0 1 90.921306 0v626.8721a45.460653 45.460653 0 0 1-45.460653 45.460653z" p-id="4619" fill="#bfbfbf"></path><path d="M500.709507 360.638149H279.043363a45.460653 45.460653 0 0 1 0-90.921306H500.527665a45.460653 45.460653 0 0 1 0 90.921306z" p-id="4620" fill="#bfbfbf"></path><path d="M607.269278 554.967288H279.043363a45.460653 45.460653 0 0 1 0-90.921306h328.044073a45.460653 45.460653 0 0 1 0 90.921306z" p-id="4621" fill="#bfbfbf"></path><path d="M674.308588 341.605289a45.521267 45.521267 0 0 1-32.125528-77.646796L891.671125 14.470429a45.460653 45.460653 0 1 1 64.31167 64.311671l-249.488064 249.488064a45.581882 45.581882 0 0 1-32.186143 13.335125z" p-id="4622" fill="#bfbfbf"></path></svg>